<?xml version="1.0" standalone="no"?>
<!DOCTYPE svg PUBLIC "-//W3C//DTD SVG 20010904//EN"
 "http://www.w3.org/TR/2001/REC-SVG-20010904/DTD/svg10.dtd">
<svg version="1.0" xmlns="http://www.w3.org/2000/svg"
 width="360.000000pt" height="360.000000pt" viewBox="0 0 360.000000 360.000000"
 preserveAspectRatio="xMidYMid meet">
<metadata>
Created by potrace 1.11, written by Peter Selinger 2001-2013
</metadata>
<g transform="translate(0.000000,360.000000) scale(0.100000,-0.100000)"
fill="#000000" stroke="none">
<path d="M3044 3586 c-3 -9 -3 -23 0 -32 5 -14 16 -15 64 -10 31 4 64 9 72 11
8 3 26 -4 40 -14 20 -16 22 -22 11 -35 -13 -16 -7 -56 10 -56 5 0 9 -7 9 -15
0 -9 8 -19 18 -22 9 -4 20 -11 24 -17 4 -6 30 -10 58 -9 37 2 50 -1 50 -12 0
-42 59 -21 74 26 8 25 17 34 33 34 12 0 33 11 46 23 13 12 29 22 35 22 8 0 12
21 12 60 l0 61 -192 -5 c-106 -3 -209 -6 -228 -6 -19 -1 -56 2 -82 6 -39 5
-49 3 -54 -10z"/>
<path d="M2493 2675 c-146 -75 -375 -145 -648 -199 -185 -36 -686 -102 -910
-119 -253 -20 -556 -11 -654 19 -64 19 -67 18 -63 -19 3 -29 -1 -36 -42 -65
-25 -18 -48 -37 -51 -42 -10 -17 53 -40 109 -40 48 0 58 -3 72 -25 10 -15 26
-25 40 -25 25 0 54 -33 54 -62 0 -10 9 -27 20 -38 18 -18 33 -20 160 -20 139
0 141 0 150 -24 5 -13 14 -27 19 -31 20 -12 12 -70 -13 -94 -15 -14 -22 -30
-19 -41 7 -25 -14 -29 -157 -33 l-115 -2 1 -47 c0 -26 4 -51 8 -55 4 -5 73 -6
153 -5 l146 4 -8 -124 c-21 -337 -18 -314 -45 -337 -22 -18 -39 -20 -133 -21
-102 0 -154 11 -143 29 3 4 -6 18 -19 29 -38 33 -29 92 13 92 11 0 68 49 59
50 -108 22 -154 25 -212 16 -36 -5 -65 -13 -65 -18 0 -4 4 -8 9 -8 5 0 11 -9
14 -20 3 -13 14 -20 30 -20 46 0 50 -52 7 -100 -24 -27 -30 -43 -30 -80 0 -42
3 -47 30 -57 l30 -11 -1 -166 -2 -166 -31 -32 c-25 -27 -30 -40 -28 -71 3 -30
9 -40 29 -48 l26 -10 -7 -115 c-3 -63 -11 -136 -16 -161 -9 -37 -8 -49 5 -63
8 -9 15 -23 15 -31 0 -41 68 -71 109 -49 28 14 44 122 32 205 -6 39 -12 104
-13 145 l-3 75 134 8 c73 5 139 6 146 3 20 -7 8 -104 -27 -216 l-30 -94 32
-29 c18 -16 36 -43 39 -61 5 -22 13 -32 30 -34 21 -3 21 -5 7 -21 -22 -25 -2
-48 51 -59 47 -11 67 -2 77 35 6 20 3 22 -40 25 -55 3 -71 25 -26 34 18 4 32
14 35 25 4 15 11 18 34 13 37 -7 37 -6 33 250 -1 98 2 131 12 137 7 5 58 8
113 7 l100 -3 3 -65 c2 -36 -2 -100 -8 -142 -11 -67 -10 -82 3 -111 18 -36 57
-63 81 -54 27 10 50 58 49 101 0 23 -4 94 -8 159 -7 114 -6 117 14 117 14 0
21 -6 21 -19 0 -11 9 -23 21 -26 19 -6 20 -13 16 -103 -2 -54 -10 -137 -17
-186 -12 -80 -12 -91 4 -120 9 -18 17 -51 18 -75 l0 -42 61 3 c57 3 63 5 84
36 12 18 20 39 18 45 -3 7 1 29 9 50 14 40 13 50 -21 260 -22 137 -20 139 104
145 51 2 100 -1 117 -7 l28 -11 -8 -143 c-9 -169 -8 -193 9 -237 4 -8 5 -24 4
-35 -1 -14 6 -21 27 -25 16 -3 31 -11 34 -18 3 -10 -4 -12 -31 -7 -37 7 -45
-1 -43 -45 1 -25 24 -37 79 -39 18 -1 27 4 27 14 0 10 10 15 27 15 25 0 26 -1
8 -13 -22 -17 -5 -32 26 -22 13 5 18 12 14 25 -4 12 1 19 14 23 14 3 22 20 32
63 7 33 21 71 31 86 23 33 23 55 -1 126 -29 86 -47 210 -34 230 18 29 210 45
230 20 7 -8 7 -63 1 -153 -10 -164 -1 -215 39 -215 25 0 43 -27 26 -39 -15
-10 -23 -40 -12 -47 21 -12 54 5 55 29 1 13 10 41 20 62 16 35 17 49 4 202
-11 148 -11 165 4 182 20 23 21 69 0 110 -23 45 -21 371 1 384 19 10 19 65 0
110 -22 54 -20 118 5 124 10 3 26 16 35 29 15 23 14 25 -2 32 -24 9 -203 9
-226 0 -17 -7 -17 -9 -1 -33 9 -14 25 -25 35 -25 20 0 39 -28 39 -57 -1 -10
-13 -33 -29 -51 l-28 -33 -108 3 -107 3 -13 40 c-42 133 -74 460 -47 487 5 5
91 16 193 24 101 9 189 20 196 26 6 5 13 38 15 74 4 75 15 71 -136 44 -135
-25 -214 -26 -222 -5 -4 10 -13 13 -25 10 -15 -5 -19 -1 -19 17 1 13 -2 38 -6
57 -5 26 -3 36 10 43 9 5 16 19 16 32 0 13 6 29 14 35 8 7 90 23 182 37 93 15
180 31 193 38 16 7 30 28 41 60 16 49 41 76 69 76 9 0 28 6 43 14 26 14 121
38 136 34 4 -1 18 3 32 9 14 6 33 14 44 17 24 8 17 37 -29 115 -41 70 -44 100
-10 129 26 23 34 63 13 60 -7 -1 -59 -25 -115 -53z m-803 -571 c0 -7 11 -21
25 -30 38 -25 34 -66 -10 -100 -26 -19 -34 -32 -30 -45 8 -25 3 -26 -139 -39
-82 -7 -123 -7 -130 0 -10 10 11 116 36 182 11 30 20 33 143 46 80 9 105 6
105 -14z m-557 -69 c12 -41 36 -147 37 -162 0 -14 -30 -20 -152 -28 -96 -7
-98 -7 -107 17 -5 13 -16 30 -25 37 -20 17 -21 75 -1 91 8 7 15 21 15 31 0 10
6 21 13 26 18 11 95 21 156 19 52 -1 55 -3 64 -31z m594 -271 c6 -16 -13 -395
-24 -468 l-5 -39 -97 6 c-115 7 -134 13 -126 38 4 11 2 19 -5 19 -15 0 -32 50
-25 77 4 16 15 26 36 30 17 3 33 13 37 22 3 9 10 19 16 23 17 11 5 16 -71 32
-63 14 -79 14 -140 1 -37 -8 -72 -15 -77 -15 -5 0 -2 -8 7 -18 10 -10 17 -24
17 -30 0 -6 11 -14 25 -18 14 -3 25 -10 25 -15 0 -6 -36 -7 -87 -3 -56 4 -104
2 -131 -5 -37 -10 -41 -14 -32 -31 5 -10 19 -22 30 -25 26 -8 28 -73 3 -104
-17 -20 -26 -22 -113 -19 -86 3 -95 5 -98 23 -2 11 -9 27 -16 35 -14 17 -7
422 7 436 4 4 65 12 135 17 70 4 242 17 382 26 337 24 320 24 327 5z m-399
-402 c2 -13 -3 -25 -12 -28 -9 -3 -16 -15 -16 -25 0 -10 -4 -19 -9 -19 -5 0
-17 -7 -25 -16 -22 -21 -36 -9 -36 31 0 29 4 36 25 41 14 3 25 12 25 19 0 14
18 25 35 21 6 -1 11 -12 13 -24z m-5 -206 c3 -8 6 -94 6 -192 1 -173 0 -177
-23 -199 l-23 -22 -27 31 c-26 30 -26 32 -26 188 0 153 1 158 23 169 12 7 26
18 30 25 10 18 33 18 40 0z m356 -5 c11 -7 15 -41 18 -148 1 -76 4 -161 5
-190 2 -29 -2 -57 -8 -63 -7 -7 -56 -14 -111 -17 l-99 -6 -16 44 c-12 34 -14
80 -12 209 2 91 3 168 3 173 1 10 203 9 220 -2z m499 -188 c2 -120 -1 -183 -8
-183 -5 0 -10 -7 -10 -15 0 -17 -19 -22 -126 -30 -59 -4 -84 -2 -91 7 -11 14
-25 393 -15 403 3 3 60 4 126 3 l121 -3 3 -182z m-1479 164 c7 -9 8 -44 3
-113 -5 -54 -6 -124 -4 -156 3 -41 -1 -63 -13 -82 -17 -26 -19 -26 -136 -26
-98 0 -119 3 -119 15 0 8 -9 19 -20 25 -19 10 -20 21 -20 174 0 89 3 166 7
169 3 4 70 7 148 7 106 0 145 -3 154 -13z m422 -127 c4 -69 10 -133 14 -143 9
-20 -11 -76 -33 -94 -10 -8 -49 -13 -108 -13 l-92 0 -19 33 c-17 28 -19 50
-17 187 1 85 2 156 3 158 1 1 56 1 124 0 l122 -3 6 -125z"/>
<path d="M81 1052 c-1 -8 -9 -10 -26 -6 -32 8 -34 -13 -2 -25 24 -9 43 9 33
32 -3 9 -5 9 -5 -1z"/>
<path d="M13 993 c-8 -3 -13 -25 -13 -59 0 -52 1 -54 28 -54 25 1 26 1 7 12
-29 16 -29 16 -15 33 8 10 9 15 1 15 -16 0 -13 27 4 34 8 3 15 10 15 16 0 11
-7 12 -27 3z"/>
<path d="M104 909 c-7 -12 15 -31 28 -23 4 3 8 12 8 20 0 17 -26 19 -36 3z"/>
<path d="M296 181 c-10 -16 6 -41 30 -47 33 -9 74 3 74 21 0 26 -90 48 -104
26z"/>
<path d="M2210 30 c0 -5 7 -10 15 -10 8 0 15 5 15 10 0 6 -7 10 -15 10 -8 0
-15 -4 -15 -10z"/>
</g>
</svg>
