<svg version="1" xmlns="http://www.w3.org/2000/svg" width="606.667" height="606.667" viewBox="0 0 455.000000 455.000000"><path d="M107.9 13.1c5.7.4 11 1 11.9 1.4.8.3 11.3.8 23.1 1.1 11.9.3 30.8.9 42.1 1.5 11.2.5 40.2.9 64.5.8 43.2 0 44.3-.1 59.9-2.8l15.9-2.7-113.9-.1c-64.7 0-109.4.3-103.5.8zM431.5 13c.4.6 1.1.8 1.6.5 1.4-.9 1.1-1.5-.7-1.5-.8 0-1.2.5-.9 1zM374.5 14.9c-.3.6.4 1.5 1.5 2.1 1.1.6 2 1.7 2 2.4 0 .8 1.4 1.9 3 2.6 1.8.7 3 2 2.9 2.9-.3 3.4.2 4.1 2.6 4.1 2.5 0 2.5-.1.9-2.5-.9-1.4-1.3-3.2-.9-4.5.8-2.5-1-5-3.7-5-1 0-2.1-.7-2.4-1.5-.7-1.7-4.9-2.1-5.9-.6zM390.8 20.7c.7.3 1.6.2 1.9-.1.4-.3-.2-.6-1.3-.5-1.1 0-1.4.3-.6.6zM430.5 21.1c-1.6.5-8.2 1.4-14.5 1.9-6.3.6-12.4 1.1-13.6 1.3-1.1.1-2.9 1-3.9 1.9-1.8 1.7-1.7 1.9 2.3 3.5 4.6 2 5.4 3.8 2 4.9-1.9.6-1.9.7-.4 1.6.9.5 1.4 1.3 1.1 1.9-.4.5.1.9 1 .9s1.9.9 2.2 1.9c.4 1.4 1.3 1.8 4 1.7 2.1-.1 3.7.4 4 1.1.8 2 4.3 1.6 4.3-.5 0-2 2.9-5.2 4.7-5.2.5 0 2-1.1 3.3-2.5 1.5-1.6 3-2.3 4.1-2 1.4.5 1.8-.1 2.1-2.7.2-2.4.9-3.4 2.3-3.6 3.1-.6 4.6-3 3.2-5.3-1.3-2-3.5-2.3-8.2-.8zM441.6 97.7c-.4 2.1-.9 12.1-1.2 22.3-.2 10.2-1.1 33.6-2 52-1.5 32.4-2 74.2-.9 76 .8 1.4 2.9 35.4 2.7 45.5-.3 15.9-1.3 44.9-1.7 45.5-.5.7 2.4 46.4 3.3 53 .4 3 .8-31.9.8-77.5.1-45.7.2-113.8.3-151.3.2-37.6.1-68.6-.2-68.8-.2-.3-.7 1.2-1.1 3.3zM12.7 97.7c-.7 1.1-1.1 309.3-.3 310 .2.2 1-3.6 1.7-8.4 1.2-8.9 1.7-48.2 1.1-99.8-.2-16.8.2-30.6 1.3-42 1.6-18.2 2.3-70.4.9-72.6-.4-.8-.9-16.9-1.1-35.9-.2-32.8-1.7-54.2-3.6-51.3zM330.6 112.5c.3.7-.4 1.5-1.6 1.8-1.1.3-1.9 1.1-1.8 1.8.4 1.8-9 7.2-17 9.8-17.3 5.4-50 13-70 16.2-7.3 1.1-14.8 2.7-16.5 3.4-4.5 1.8-38.1 5.8-40.4 4.8-1-.5-13-.6-26.8-.3l-25 .5 4.1 1.9c2.2 1.1 4.8 3.2 5.7 4.8.9 1.5 2.3 2.8 3.2 2.8.8 0 1.5.7 1.5 1.5s.4 1.5 1 1.5c.5 0 .6-.8.3-1.8-.6-1.5-.5-1.5 1-.3 1.4 1.1 2 1.1 3.4 0 1.4-1.2 1.6-1.2.8 0-.6 1.1-.4 1.3.8.8.9-.3 1.9-.2 2.2.3.4.6 1.7 1 3.1 1 1.4 0 2.3-.4 2-.9-.4-.6.5-.6 2.1-.1s4.8 1.4 7.1 2c2.4.6 4.1 1.4 3.8 1.7-.3.3.3 2.7 1.3 5.4 1 2.6 1.6 5 1.3 5.3-.3.4 0 .6.6.6.7 0 1.2-.7 1.2-1.5s.4-1.5.8-1.5c.8 0 4.2-5.3 4.4-6.7.1-1.6 5.7-6.2 6.3-5.3 1 1.6 5.8 1.1 9.2-1l3.2-1.9 2.9 2.7c2.8 2.7 4.3 6.3 6.2 15.6.8 3.4.7 5.2-.1 6.2-1.5 1.8-.3 3.3 2.2 2.7 1.2-.3 2.5 0 2.9.7.5.8 1.5 1 2.6.5 3.5-1.4 6.4-1.4 6.4.1 0 1.6 2.6 1.9 3.5.4.3-.6 1.5-1 2.7-1 1.8 0 1.9-.2.7-1.6-1.2-1.5-1.1-1.6.8-1 1.2.4 2.4.2 2.8-.3.4-.7-.1-.8-1.1-.4-1.3.5-1.5.3-.9-.7.5-.9.4-1.1-.3-.6-2.2 1.3-2.3-3.9-.3-11.7 1.1-4.2 1.8-8.4 1.5-9.1-.6-1.6 2-2.7 7.5-3.1 2-.1 6.8-.6 10.7-1 5.9-.5 7.1-.4 7.1.8 0 1.8 4.4 7.6 5.8 7.6 1.4.1 1.7 4.8.5 7.2-.6 1-.7 1.9-.2 1.9 1.2 0 1.4 5.8.2 6.5-.8.5-.8 1.1 0 2 .7.9.8 1.5.1 2-.6.3-1.3-.6-1.7-2-.3-1.4-1.4-3-2.3-3.5-1.3-.9-1.2-1 .8-.8 1.3.2 2.6-.3 2.8-1 .3-.8-.1-1-1.3-.5-1.3.5-1.5.3-.9-.7.5-.8-.6-.4-2.3.9-2.8 2-4.8 5.2-2.2 3.6.6-.3 1-.1 1 .4 0 .6-.5 1.1-1.1 1.1-.5 0-.7.5-.4 1 .4.6 1.5.8 2.5.5 1-.3 2.2 0 2.6.6.5.8.2 1.1-.7.7-.8-.3-1.9 0-2.6.7-.9 1-.5 1.3 1.9 1.1 1.8 0 3.2.4 3.4 1.2.1.7 0 .8-.3.2-.2-.5-.9-1-1.4-1-.6 0-.3 1.3.7 2.8 1.1 1.9 2.4 2.8 3.8 2.7 1.1-.2 2-.7 1.9-1.3-.1-.5.4-1.5 1.2-2.2.7-.6 1.2-1.7.9-2.4-.3-.7.2-1.9 1.1-2.6.8-.7 1.5-.8 1.5-.3 0 .8 2 1 6.5.4.6-.1.2-.6-.9-1.2-1.1-.7-2.1-.8-2.5-.2-.4.6-1.6.6-3.4-.2l-2.8-1.1 2.6-1.2c3.6-1.6 4.4-1.4 2 .5-1.8 1.4-1.8 1.5-.2.9 1-.3 2.1-.6 2.3-.6.2 0 .4-.6.4-1.4 0-.8-1.4-2-3-2.8-2.9-1.2-4.8-4.3-3.6-5.5.3-.4-.2-1.5-1.1-2.6-1.7-1.8-1.7-2.1.3-5.7 1.3-2.3 1.8-4.3 1.3-4.9-.5-.6-.6-.9-.3-.6.4.2 1.5-.7 2.6-2 1.1-1.4 2.4-2.3 2.9-1.9.5.3 1.2-.2 1.5-1 .3-.9 1-1.6 1.6-1.6.5 0 .6.4.3 1-.4.6.2.7 1.7.1 1.3-.5 4.2-.9 6.6-.9 2.3 0 5.2-.4 6.3-.7 1.2-.4 3.1-.9 4.2-1 1.2-.2 3.1-.6 4.2-.8 1.1-.2 3-2.4 4.4-5 1.3-2.5 2.6-4.6 3-4.5 1.8.2 3.2-.3 2.7-1-.3-.5.6-1.9 1.9-3 1.4-1.2 2.6-3 2.7-3.9 0-1 .1-2.5.2-3.3.1-1.6 5.6-2.8 5.6-1.3 0 .5.6 1.7 1.3 2.6 1.1 1.7 1.5 1.6 5.2-.2 2.2-1.1 4.2-1.5 4.3-1 .2.5 1.3.9 2.3.9 1.1 0 1.8.4 1.5.9-.4.5.3.7 1.5.4 3.2-.9 3.3-2.6.3-8.4-1.5-3-3-6.7-3.3-8.3-.6-2.5-1.1-2.9-4.3-3.1-2.6-.2-3.5.1-3.2 1zm-3.6 11.9c0 .3-.4.8-1 1.1-.5.3-1 .1-1-.4 0-.6.5-1.1 1-1.1.6 0 1 .2 1 .4z"/><path d="M302.5 124c-.3.6.1.7.9.4 1.8-.7 2.1-1.4.7-1.4-.6 0-1.3.4-1.6 1zM263 133.1c-5.4 1.1-12.8 2.1-15.5 2.1-1.1 0-3.3.4-5 .9-1.6.4-6.3 1-10.4 1.4-4 .3-9.2 1-11.5 1.5-15.5 3.4-61.7 5.1-83.5 3-8.4-.8-11.7-.8-12.7.1-.8.6-1.1 1.5-.8 2 .3.5-.2.6-1 .3-1.1-.4-1.6 0-1.6 1.1 0 .9-.4 1.4-.9 1.1-.5-.4-.7.3-.4 1.4.4 1.5 1.3 1.9 3.9 1.8 1.8-.1 3.1-.5 2.9-.9-1-1.6 3.9-2 22-1.9 19.1.1 50.9-2.3 72.5-5.5 28.4-4.1 37-5.5 42.9-6.9 9.9-2.3 9.2-3.5-.9-1.5zM178.5 179.3c-1.2 1.4-.8 4.7.6 4.7.5 0 .9.9.9 2s-.4 2-1 2c-.5 0-1 .5-1 1.1 0 .5.5.7 1 .4.6-.3 1-.1 1 .4 0 .6-.4 1.1-1 1.1-.5 0-1 .6-1 1.4 0 .7-.7 1.9-1.5 2.6-.9.7-1.4 1.9-1.1 2.6.3.7 0 1.5-.7 1.8-.7.4-.2.4 1 .2 1.4-.2 2.3.2 2.6 1.3.3 1.3.5 1.3 1.2-.4.5-1.1 1.5-2.6 2.2-3.4.8-.7 1.3-2.3 1.2-3.5-.3-4.1.1-7.6.9-7.5 2.7.5 3.2-.2 2.1-2.4-1.1-2.1-4.8-5.7-5.9-5.6-.3 0-1 .5-1.5 1.2zM280.3 180.5c0 .8.9 1.7 1.9 2.1 1.1.3 1.5 1 1.1 1.7-.4.7.1.6 1-.2 2.1-1.7 2.2-4.1.1-4.1-.8 0-1.2.4-.9 1 .3.5.1 1-.4 1-.6 0-1.1-.7-1.1-1.5s-.4-1.5-.8-1.5c-.5 0-.9.7-.9 1.5zM240.8 182.7c.7.3 1.6.2 1.9-.1.4-.3-.2-.6-1.3-.5-1.1 0-1.4.3-.6.6zM247.3 185.5c0 .8.4 1.2.9.9.5-.3.6-1 .3-1.5-.9-1.3-1.2-1.1-1.2.6zM255 186c.8.5 2 1 2.5 1 .6 0 .3-.5-.5-1s-1.9-1-2.5-1c-.5 0-.3.5.5 1z"/><path d="M185.5 188c-.3.5.3 1 1.5 1s1.8-.5 1.5-1c-.3-.6-1-1-1.5-1s-1.2.4-1.5 1zM206 189c0 .5.5 1 1 1 .6 0 1-.5 1-1 0-.6-.4-1-1-1-.5 0-1 .4-1 1zM171.1 189.7c-.1 1.7 1.6 2.5 2.5 1.2.4-.7.3-.9-.4-.5-.5.3-1.3 0-1.5-.6-.4-.9-.6-1-.6-.1zM175 192c0 .5.5 1 1.1 1 .5 0 .7-.5.4-1-.3-.6-.8-1-1.1-1-.2 0-.4.4-.4 1zM267 196.5c0 .8-.4 1.5-1 1.5-.5 0-1 .7-1 1.6 0 1.2.5 1 2-.9 2.2-2.8 2.5-3.7 1-3.7-.5 0-1 .7-1 1.5zM265.2 205c0 1.4.2 1.9.5 1.2.2-.6.2-1.8 0-2.5-.3-.6-.5-.1-.5 1.3zM265.2 215.6c.2.9 1.3 2.3 2.5 3.1 2 1.4 2.2 1.3 2-.6-.1-1.2-.7-2.1-1.4-2.1s-1.3-.5-1.3-1c0-.6-.5-1-1.1-1-.6 0-.9.7-.7 1.6zM223 216.5c-2.5.7-3.9 1.3-3.2 1.4.6.1 1.2.8 1.2 1.6s.5 1.6 1 1.6c.6.1 1.5.2 2.2.3 2.6.3 3.4 10.6.8 10.6-.6 0-1 .9-1 2 0 1.2-.7 2-1.6 2-1.2 0-1.5.6-1.1 2.2.4 1.2.1 2.8-.5 3.5-1.8 2.2.6 4 2.8 2.2 1.5-1.2 1.7-1.2.9 0-.6 1-.4 1.3.6.9 1.1-.4 1.4 1.6 1.7 11.4.2 11.8 1.3 16.5 3.4 15.2.7-.4.8-.3.4.5-.4.6-1.2.9-1.7.6-.5-.4-.9.1-.9.9 0 .9.6 1.6 1.3 1.6.9 0 .8.3-.2.9-.7.5-1 1.4-.7 2 .4.6.2 1.1-.5 1.1s-.9.3-.6.7c.4.3-.2 1.2-1.3 2s-2 2.1-2 2.9c0 1.7-2.2 1.8-3.8.2-.9-.9-1.2-.8-1.2.6 0 2.4 3.9 8.8 5 8.1.4-.3 1.1.2 1.4 1.1 1.1 3 .5 18.8-1 23.2-2.1 6.2-1.8 11.4.7 14.1 1.2 1.2 2.4 3.4 2.8 4.9.9 3.3 5.3 4.7 7.5 2.3.8-.9 1.5-1.9 1.6-2.3 0-.4 1-2.8 2.1-5.3 1.3-3 1.7-5 1.1-5.8-.5-.7-1-4.1-1.1-7.7-.2-3.5-.9-8-1.7-9.8-1.2-3-1.5-6.7-1.2-15.7.2-4.1-.5-6.8-1.9-8.3-.7-.7-.9-2-.6-2.9.4-1 .2-1.4-.4-1-.6.4-.9-.8-.8-2.8 0-1.8-.2-3.2-.6-2.9-.4.2-.5-.5-.2-1.7.5-1.6.8-1.8 1.5-.7.7.9.8 0 .4-2.5-.2-2-.2-3.5.2-3.3.4.2.6-2.1.5-5.2-.4-8-.4-7.9-.3-16.2 0-4.1-.4-7.6-.9-7.8-.5-.2-.7-1.5-.5-2.9.3-1.4 0-3.1-.6-3.8-.8-1-.8-1.5 0-2s.8-1.1-.1-2.1c-1-1.2-.9-1.3.4-.9 2.4 1 3.3-1.6 1.1-3.2-1.6-1.2-1.7-1.5-.4-2.3.8-.5 3-.9 4.7-.8 6.1.2 5.8-1.8-.4-3.3-5-1.1-8.8-1-14.3.6zm.3 26c-.3.9-.8 1.4-1 1.1-.3-.3-.2-.9.2-1.5.9-1.6 1.5-1.3.8.4zM175.6 218.5c-.3.8-.1 1.5.4 1.5.6 0 1-.7 1-1.5s-.2-1.5-.4-1.5-.6.7-1 1.5zM302.3 221.2c-.2.5 1.7.8 4.3.8 2.6 0 4.4-.3 4-.7-1-1-7.7-1-8.3-.1zM128.1 221.9c-3.1.5-3.3.7-1.8 2 1 .7 1.7 1 1.7.7 0-.4.9-.2 2 .4 1.1.6 2 1.9 2 2.9 0 2.8 2.6 4.6 4.5 3.1.8-.7 1.5-1.8 1.5-2.5s-.7-1.5-1.5-1.9c-2.8-1-1.6-2.8 1.5-2.4 1.7.3 3 .1 3-.4 0-.4.8-.9 1.8-.9 2.5-.2-5.8-1.8-8.8-1.7-1.4 0-4 .3-5.9.7zM174 222.6c0 .8.6 1.1 1.5.8.8-.4 1.5-.9 1.5-1.3s-.7-.8-1.5-.8-1.5.6-1.5 1.3zM265 225.6c0 .8.5 1.2 1 .9.6-.3 1-1 1-1.6 0-.5-.4-.9-1-.9-.5 0-1 .7-1 1.6zM207.5 226c.7 1.2 4.2 1.2 7 0 1.5-.6.8-.9-2.8-.9-3-.1-4.6.3-4.2.9z"/><path d="M217 226.2c0 .4.6.8 1.4.8.8 0 1.7-.4 2-.8.2-.4-.4-.8-1.5-.8-1 0-1.9.4-1.9.8zM306.5 227c-.3.5-.1 1 .4 1 .6 0 1.1-.5 1.1-1 0-.6-.2-1-.4-1-.3 0-.8.4-1.1 1zM264.3 229.4c-.8.9-.8 1.7-.1 2.4.7.7.3 1.2-1.1 1.7-2.3.7-2.9 3.5-.8 3.5.6 0 .4.5-.6 1.1-1.7 1-1.7 1.2.4 3 1.2 1 1.7 1.9 1 1.9s-1 .4-.6.9c.3.5-.1 1.6-1 2.4-1.1 1.1-1.2 2.3-.5 4.6.5 1.7.5 3.1.1 3.1-.9 0-.8 2.6.3 5.8.4 1.2 1.1 2 1.5 1.7.5-.2.6.8.4 2.3-.8 5.9-.9 8.3-.2 8.7 1 .7.8 5.5-.3 5.5-.5 0-.7.8-.3 1.9.3 1.2 0 2.1-1 2.5-.9.3-1.4 1-1.1 1.5.3.5-.1 1.4-.9 2.1-1.2 1-1.3 1.6-.4 2.6.8 1 .8 1.4.1 1.4-1.4 0-.3 3.1 1.5 4.5 1.7 1.2 1.9 6.7.8 20.2-.6 7.3-.5 10.6.4 11.6.6.8 1.2 2.9 1.4 4.8.2 2.6.7 3.5 2.4 3.7 1.2.2 2.5 1.2 2.8 2.3.7 2 3.1 2.4 7.3 1.2 1.8-.4 2.1-.8 1-1.5-1-.7-1-1.1-.1-1.4.7-.3 1-1.1.7-1.8-.3-.7 1.1-2.8 3.1-4.7 3.9-3.8 4.3-6.2 1.9-12.4-.8-2.2-1.7-5.2-1.9-6.8-.2-1.5-.7-3.3-1.1-3.9-1.3-2.1-1.5-10.2-.3-12.5 1-1.9.9-2.6-.5-4.2-1-1.1-1.3-2-.7-2.2.7-.3.6-1.4-.4-3.2-.7-1.5-1.2-2.7-1-2.7.2 0-.2-2-.9-4.5-.8-2.5-1-4.5-.6-4.5 1 0 2.3-3.5 2.4-6.7.1-1.5-.2-1.9-.8-1.3-.6.6-1.9.9-3 .9-1.6-.1-1.7-.2-.5-.6 1.8-.4 3.4-4.3 1.8-4.3-.5 0-.9-.8-.9-1.8s-.6-2.4-1.2-3.1c-.7-.7-.8-1.2-.3-1.1 2.5.5 3.1-.2 3.1-3.3-.1-1.9-.6-3.4-1.3-3.4-.7 0-.9.5-.6 1 .3.6.1.7-.5.4-.5-.4-.8-1.6-.5-2.7.3-1.1.9-1.7 1.5-1.4.5.3.6-.6.2-2.3-.4-1.5-.7-3.6-.6-4.6 0-.9-.3-1.5-.9-1.2-.5.4-1-.2-1.1-1.2 0-1-.2-2.4-.2-3.1-.1-1.5-3.4-4.2-5-4.2-.6.1-1.6.7-2.3 1.4zM175 231.7c0 .7-.6 1.3-1.4 1.3-1.4 0-2.9 6.1-1.7 7 1 .8.8 8.4-.3 9.2-.5.3-1 2.2-1.1 4.2-.1 2.6.3 3.6 1.4 3.6 1.2 0 1 .5-.7 1.8-1.3 1-2 2.1-1.5 2.5.4.4.9 2 1.1 3.5.2 1.4.8 3.2 1.4 3.9.7.9.7 1.3-.1 1.3-.7 0-.9.5-.6 1 .4.6 1 .8 1.5.5.6-.3.3.7-.5 2.2-.8 1.5-2.2 4.6-3.2 6.8-.9 2.2-2.3 4.4-3 4.8-.7.4-1.8 1.7-2.4 2.9-.8 1.5-.8 1.9.1 1.3.6-.4 2 .2 3.1 1.4 1.8 1.9 1.9 2.7.9 10.2-.5 4.5-1.4 8.7-1.8 9.3-.9 1.1-3.2 8.6-3.2 10.3 0 .5 1.6 1.7 3.5 2.6 3.2 1.5 4 3 3.6 6.4-.3 2 1.2 1.6 8-2.1 7.7-4.2 8.9-6.1 7.7-12.9-.5-2.9-1-9-1.2-13.7-.2-4.7-.9-9.8-1.5-11.3-.6-1.6-1.1-3.4-1.1-4 0-.7-.7-2.1-1.5-3.1-.9-1.1-1.5-4.1-1.5-6.9 0-2.8-.4-4.6-1-4.2-1.5.9-.7-5.9.9-7.1 1.1-.9 1.1-1.4 0-3.2-1-1.6-1.1-2.4-.2-3.3.7-.7.9-2 .3-3.4-.5-1.3-.6-2.6-.3-2.9.4-.3.2-.6-.3-.6s-1-1.1-1-2.5c-.1-1.4.2-2.5.7-2.5.4 0-.1-1.5-1.2-3.4l-2-3.4 2.3-.7c1.3-.4 2.6-.7 3.1-.6 1.4.2.7-1.6-1.3-3.4-1.3-1.2-1.7-2.2-1.1-2.9.7-.8.4-1.2-1-1.2-1 0-1.9.6-1.9 1.3zm3.5 24.3c.3.5.1 1-.4 1-.6 0-1.1-.5-1.1-1 0-.6.2-1 .4-1 .3 0 .8.4 1.1 1zm-1.5 12c0 .5-.4 1-1 1-.5 0-1-.5-1-1 0-.6.5-1 1-1 .6 0 1 .4 1 1zM210.8 231.7c.7.3 1.6.2 1.9-.1.4-.3-.2-.6-1.3-.5-1.1 0-1.4.3-.6.6zM131.4 234.4c-2.7 2.7-3.4 4.9-2.3 6.7.7 1.2.9 1.2 1-.1.1-.8.1-1.9 0-2.3-.1-.5.3-.6.8-.3.6.4.6 1.8 0 3.8-.5 1.9-.5 3.6.1 4.3.8.9 1.5 21.9 1.1 30.5 0 1.4-1.4 4-3 5.7-3.3 3.6-3.2 7.4.2 9.8 1.9 1.3 2 2.1 1.4 12.2-.4 5.9-1.1 12.4-1.6 14.4-.7 3.2-.5 4.1 1.6 6.3 1.3 1.4 2.8 2.6 3.3 2.6.6 0 1 .7 1 1.5s.9 1.5 1.9 1.5c2.2 0 3.6-1.6 2.2-2.5-.5-.3.1-1.6 1.5-3 2.6-2.6 2.9-4.7 1.4-12.4-.5-2.8-1.2-8.4-1.6-12.4-.5-6-.3-7.5 1-8.6.9-.7 1.6-2 1.6-2.7 0-.8.4-1.4 1-1.4.5 0 .7.7.4 1.5-.4 1 0 1.5 1.1 1.5 1.2 0 1.5-.5 1.1-1.6-.3-.9-.6-2-.6-2.5s-1.1-.4-2.5.1c-2.1.8-2.7.6-3.2-.8-.3-.9-.8-2.1-1.1-2.6-.3-.5 0-.6.6-.2.8.5 1 .2.6-.8-.3-.9-1.1-1.6-1.6-1.6-.6 0-.8-.6-.5-1.4.3-.8.3-1.7-.1-2.1-1-1-.8-5.9.3-6.7.6-.4.2-1.3-1-2.3-1.7-1.4-1.7-1.6-.2-1.1 2 .6 2.3-.7.3-2.3-.9-.8-1.1-2.2-.6-5.1.4-2.2.3-4.3-.1-4.6-.5-.3-.9-1-.9-1.5 0-.6.5-.7 1-.4 1.3.8 1.3-.1 0-2.5-.9-1.6-.8-1.8.6-1.3 1.2.5 1.5.3.9-.6-.4-.8-.2-1.7.6-2.2 1.1-.7 1-.9-.5-.9-1.3 0-1.7-.5-1.3-1.8.2-.9.6-2.4.8-3.2.2-.8.9-1.8 1.4-2.2.6-.5.5-.8-.2-.8s-1.3-.7-1.3-1.5-.5-1.5-1.1-1.5c-.7 0-1.7-.6-2.3-1.3-.9-1.1-1.5-1-3.2.7zm5.5 5.2c-1.5 1.8-2.2 1.3-1.3-1 .3-.9 1-1.3 1.6-1 .5.3.4 1.2-.3 2zM304.2 235.3c-1 1.2-.9 1.6.4 2.1 2.1.8 2.3.6 1.5-1.7-.6-1.7-.9-1.7-1.9-.4zM209 240.3c0 1.3.5 2.8 1.2 3.5.9.9.9 1.2 0 1.2-.6 0-.9.7-.5 1.6.5 1.3.9 1.1 2.1-1.1 1.3-2.6 1.3-3-.4-4.2-1-.7-1.2-1.3-.5-1.3s.9-.5.6-1c-1.1-1.8-2.5-1.1-2.5 1.3zM306 240.4c0 .8.5 1.8 1 2.1.6.3 1-.1 1-.9s-.4-1.8-1-2.1c-.5-.3-1 .1-1 .9zM306.5 245c-.3.5-.1 1 .4 1 .6 0 1.1-.5 1.1-1 0-.6-.2-1-.4-1-.3 0-.8.4-1.1 1zM304.5 248.9c-.3.5-.1 1.2.5 1.6.5.3 1-.1 1-.9 0-1.8-.6-2.1-1.5-.7zM209.3 249.7c-1.8.7-1.6 2.3.2 2.3.8 0 1.5-.7 1.5-1.5s-.1-1.5-.2-1.4c-.2 0-.9.3-1.5.6z"/><path d="M260 263c0 .5.5 1 1.1 1 .5 0 .7.5.3 1.2-.4.7-.3.8.5.4.9-.6.9-1.1 0-2.2-1.4-1.7-1.9-1.8-1.9-.4zM276.7 271.7c-.4.3-.7 1.1-.7 1.7 0 .6.5.5 1.2-.2.6-.6.9-1.4.7-1.7-.3-.3-.9-.2-1.2.2zM210.3 281.4c.3.7.1 1.8-.4 2.3-1 1-1.5 9.5-.6 11 .4.6-.2 6.1-1.3 12.4-1.6 9.9-1.7 11.6-.4 12.5.8.6 1.4 1.6 1.4 2.3 0 1.9 5.6 1.2 7.5-.9 1.6-1.8 1.7-3 .6-16.5-.7-8-1-14.9-.7-15.3.7-1.1-1.1-3.7-2.6-3.7-.7 0-1.3-.7-1.4-1.5-.2-3.4-.5-4-1.5-4-.6 0-.9.6-.6 1.4zM303.5 282c-.3.5.1 1 .9 1 .9 0 1.6-.5 1.6-1 0-.6-.4-1-.9-1-.6 0-1.3.4-1.6 1zM303 286.8c-1.4 1.4-2 2.2-1.4 1.9.7-.4 1.6-.1 2.2.6 1.2 1.5 1.3 10.3.2 13.3-.6 1.4-.5 2.6 0 2.9.6.4.7 1.3.1 2.3-.5.9-1.2 4.7-1.5 8.3-.6 5.5-.4 6.7 1.1 8.1 2.7 2.4 6 3 8.4 1.7 2.1-1.1 2.1-1.5 1.5-11.3-.4-5.5-1.1-10.5-1.7-11.1-.5-.5-.9-2.1-.9-3.6 0-4.7-1.2-8.7-3.2-10.8-1-1.2-1.6-2.5-1.3-3 1.2-2.1-1.2-1.6-3.5.7zM141 286c0 .5.7.7 1.5.4.8-.4 1.5-.8 1.5-1 0-.2-.7-.4-1.5-.4s-1.5.4-1.5 1zM157.2 287.9c-1.6 1 0 2.9 1.9 2.2 1.3-.5 1.4-.8.4-1.8-.6-.6-1.7-.8-2.3-.4zM273.3 427.1c-.5.5-5.4 1.2-10.8 1.5-5.7.2-10.2.9-10.6 1.5-.4.6-1.3.9-2 .7-.8-.3-3.4 0-5.9.7-2.5.7-7.6 1.3-11.4 1.4-3.8 0-7.1.3-7.4.6-.3.3-1.1 0-1.8-.6-.9-.7-1.9-.7-3.3 0-2.5 1.4-7.4 1.4-6.6.1.4-.6-1.8-.8-5.7-.5-5.2.4-29 1.2-56.1 1.9-3.1 0-5.7-.2-5.7-.7 0-1.6-2.2-.6-2.7 1.3-.6 2.3-2.3 2.7-2.3.5 0-1.8-1.4-1.9-4-.5-1.5.8-1.8.7-1.4-.3.6-1.7-6.6-1.8-8.1-.1s-4.4 2.4-5 1.4c-.4-.6-.1-1 .4-1 .6 0 1.1-.5 1.1-1 0-.6-1.1-.3-2.5.6-2.4 1.6-2.7 1.6-4-.2-1.4-1.9-1.4-1.8-1.5.1-.1 1.9-.1 1.9-1.9-.2-2.5-3-7.3-2.5-8.1.7-.4 1.7-1.3 2.4-3.3 2.4-1.5.1-2.7-.2-2.7-.6 0-.4.5-.8 1-.8.6 0 1-.5 1-1 0-.6-.8-1-1.8-1s-2.3-.5-3-1.2c-.8-.8-1.1-.1-.9 3 .1 3 .6 4.2 1.7 4.2 1.3 0 1.3.1 0 1-2.3 1.5-7 1.2-7.6-.5-.4-.8-1-1.2-1.5-.9-.5.3-.7 1-.4 1.5.4.5.1.9-.5.9-.7 0-1.4-.9-1.7-2-.3-1.1-1.2-2-1.9-2-1.7 0-1.7.5-.3 3.2 1.1 2 1.5 2 103 1.5 60-.3 102.1-.1 102.5.4.8 1.3 4.4 1.1 4.4-.2 0-1.2 17.6-.9 19.6.4.6.3 3.2.2 6-.2 2.7-.5 4.2-1 3.4-1.1-.8-.1-9.1-1.1-18.5-2.3l-17-2.2-.3-4c-.4-5.3-2.6-7.7-5.8-6.5-1.4.6-2.6.6-2.9 0-.8-1.3-3.8-1.3-5.2.1zM112 435c0 .5-.5 1-1.1 1-.5 0-.7-.5-.4-1 .3-.6.8-1 1.1-1 .2 0 .4.4.4 1zM79.1 428.6c-.1 2.3 2.1 4.8 3.2 3.7 1.2-1.1.8-2.3-.7-2.3-.8 0-1.7-.8-1.9-1.8-.4-1.3-.5-1.3-.6.4z"/><path d="M85.7 428.6c-.4.4-.7 2.4-.7 4.4 0 3.3.3 3.8 3.5 4.7 3.8 1.2 5.1.4 5.7-3.6.4-3.3-2.9-5.4-4.4-2.7-1 1.8-1.1 1.7-2.2-.8-.6-1.5-1.4-2.4-1.9-2zM69.4 432.9c-.2.2-.4 1.8-.4 3.5s.4 2.6.8 2.1c.4-.6 2-1.9 3.5-2.8 2.6-1.7 3-1.7 5.2-.3 1.7 1.1 2.6 1.3 3.1.4.4-.6.3-.8-.3-.5-.6.4-1.3-.2-1.6-1.3-.4-1.6-1.3-1.9-5.2-1.7-2.5.1-4.8.4-5.1.6zM78.1 438.6c0 1.1.3 1.4.6.6.3-.7.2-1.6-.1-1.9-.3-.4-.6.2-.5 1.3z"/></svg>